<svg xmlns="http://www.w3.org/2000/svg" width="1440" height="900" viewBox="0 0 1440 900">
    <defs>
      <linearGradient id="bg" x1="0" y1="0" x2="1" y2="1"><stop offset="0%" stop-color="#effbf7"/><stop offset="100%" stop-color="#edf7ff"/></linearGradient>
      <linearGradient id="dark" x1="0" y1="0" x2="1" y2="1"><stop offset="0%" stop-color="#0f172a"/><stop offset="100%" stop-color="#1e293b"/></linearGradient>
      <linearGradient id="lightCard" x1="0" y1="0" x2="0" y2="1"><stop offset="0%" stop-color="#ffffff" stop-opacity="0.96"/><stop offset="100%" stop-color="#ffffff" stop-opacity="0.78"/></linearGradient>
      <filter id="shadow" x="-20%" y="-20%" width="140%" height="140%"><feDropShadow dx="0" dy="18" stdDeviation="22" flood-color="#0f172a" flood-opacity="0.12"/></filter>
      <filter id="soft" x="-20%" y="-20%" width="140%" height="140%"><feDropShadow dx="0" dy="10" stdDeviation="14" flood-color="#0f172a" flood-opacity="0.08"/></filter>
    </defs>
    <rect width="100%" height="100%" fill="url(#bg)"/>
    <circle cx="1230" cy="130" r="190" fill="#0f9b6f" opacity="0.08"/><circle cx="250" cy="720" r="180" fill="#7c3aed" opacity="0.07"/><rect x="40" y="34" width="1360" height="832" rx="32" fill="url(#lightCard)" stroke="rgba(255,255,255,.7)" stroke-width="1" opacity="1" filter="url(#shadow)"/><rect x="86" y="66" width="1268" height="52" rx="18" fill="#ffffff" stroke="none" stroke-width="1" opacity="1" filter="url(#soft)"/><circle cx="118" cy="92" r="9" fill="#ff6b6b" opacity="1"/><circle cx="146" cy="92" r="9" fill="#f4b740" opacity="1"/><circle cx="174" cy="92" r="9" fill="#35d07f" opacity="1"/><text x="232" y="98" font-family="Inter, Arial, sans-serif" font-size="24" font-weight="800" fill="#0f172a" fill-opacity="1" text-anchor="start">Ведение бухгалтерии для ИП и ООО</text><text x="730" y="98" font-family="Inter, Arial, sans-serif" font-size="16" font-weight="700" fill="#475569" fill-opacity="1" text-anchor="start">Услуги</text><text x="850" y="98" font-family="Inter, Arial, sans-serif" font-size="16" font-weight="700" fill="#475569" fill-opacity="1" text-anchor="start">Преимущества</text><text x="970" y="98" font-family="Inter, Arial, sans-serif" font-size="16" font-weight="700" fill="#475569" fill-opacity="1" text-anchor="start">Цены</text><text x="1090" y="98" font-family="Inter, Arial, sans-serif" font-size="16" font-weight="700" fill="#475569" fill-opacity="1" text-anchor="start">Контакты</text><rect x="108" y="150" width="1220" height="260" rx="28" fill="#f2fffb" stroke="none" stroke-width="1" opacity="1" filter="url(#soft)"/><rect x="142" y="182" width="160" height="40" rx="20" fill="#ffffff" stroke="none" stroke-width="1" opacity="0.78"/><text x="222" y="208" font-family="Inter, Arial, sans-serif" font-size="15" font-weight="800" fill="#263549" fill-opacity="1" text-anchor="middle">Отчётность и налоги</text><text x="142" y="270" font-family="Inter, Arial, sans-serif" font-size="56" font-weight="900" fill="#0f172a" fill-opacity="1" text-anchor="start">Ведение бухгалтерии для ИП и ООО</text><text x="142" y="322" font-family="Inter, Arial, sans-serif" font-size="24" font-weight="600" fill="#475569" fill-opacity="1" text-anchor="start">Спокойствие для собственника · документы · контроль сроков</text><rect x="142" y="350" width="154" height="36" rx="18" fill="#ffffff" stroke="none" stroke-width="1" opacity="0.86"/><text x="219" y="374" font-family="Inter, Arial, sans-serif" font-size="14" font-weight="700" fill="#334155" fill-opacity="1" text-anchor="middle">Быстрый запуск</text><rect x="310" y="350" width="154" height="36" rx="18" fill="#ffffff" stroke="none" stroke-width="1" opacity="0.86"/><text x="387" y="374" font-family="Inter, Arial, sans-serif" font-size="14" font-weight="700" fill="#334155" fill-opacity="1" text-anchor="middle">Доверие и цифры</text><rect x="478" y="350" width="154" height="36" rx="18" fill="#ffffff" stroke="none" stroke-width="1" opacity="0.86"/><text x="555" y="374" font-family="Inter, Arial, sans-serif" font-size="14" font-weight="700" fill="#334155" fill-opacity="1" text-anchor="middle">Форма заявки</text><rect x="142" y="412" width="184" height="58" rx="18" fill="#0f9b6f" stroke="none" stroke-width="1" opacity="1" filter="url(#soft)"/><text x="234" y="450" font-family="Inter, Arial, sans-serif" font-size="17" font-weight="800" fill="#ffffff" fill-opacity="1" text-anchor="middle">Получить консультацию</text><rect x="350" y="412" width="160" height="58" rx="18" fill="#ffffff" stroke="#d9e0ea" stroke-width="1" opacity="1"/><text x="430" y="450" font-family="Inter, Arial, sans-serif" font-size="17" font-weight="800" fill="#0f172a" fill-opacity="1" text-anchor="middle">Посмотреть услуги</text><rect x="924" y="172" width="334" height="206" rx="26" fill="#ffffff"/><rect x="952" y="198" width="278" height="62" rx="20" fill="#ecfdf5"/><rect x="952" y="284" width="278" height="70" rx="20" fill="#f0f9ff"/><rect x="982" y="224" width="42" height="18" rx="9" fill="#10b981" opacity=".22"/><rect x="952" y="318" width="34" height="22" rx="11" fill="#10b981" opacity=".18"/><rect x="1004" y="306" width="30" height="34" rx="12" fill="#34d399" opacity=".7"/><rect x="1046" y="290" width="30" height="50" rx="12" fill="#10b981" opacity=".8"/><rect x="1088" y="272" width="30" height="68" rx="12" fill="#059669" opacity=".86"/><rect x="1130" y="300" width="30" height="40" rx="12" fill="#0ea5e9" opacity=".84"/><rect x="1172" y="252" width="30" height="88" rx="12" fill="#2563eb" opacity=".84"/><rect x="108" y="452" width="376" height="292" rx="26" fill="#ffffff" stroke="none" stroke-width="1" opacity="1" filter="url(#soft)"/><rect x="136" y="478" width="112" height="34" rx="17" fill="#0f9b6f" stroke="none" stroke-width="1" opacity="0.12"/><text x="192" y="501" font-family="Inter, Arial, sans-serif" font-size="14" font-weight="800" fill="#0f9b6f" fill-opacity="1" text-anchor="middle">Старт</text><text x="136" y="558" font-family="Inter, Arial, sans-serif" font-size="34" font-weight="900" fill="#0f172a" fill-opacity="1" text-anchor="start">от 12 000 ₽ / мес</text><text x="136" y="594" font-family="Inter, Arial, sans-serif" font-size="18" font-weight="600" fill="#475569" fill-opacity="1" text-anchor="start">Для ИП без сотрудников</text><rect x="136" y="642" width="320" height="16" rx="8" fill="#e7ecf4" stroke="none" stroke-width="1" opacity="1"/><rect x="136" y="670" width="264" height="16" rx="8" fill="#eef2f7" stroke="none" stroke-width="1" opacity="1"/><rect x="136" y="698" width="208" height="16" rx="8" fill="#eef2f7" stroke="none" stroke-width="1" opacity="1"/><rect x="500" y="452" width="376" height="292" rx="26" fill="#ffffff" stroke="none" stroke-width="1" opacity="1" filter="url(#soft)"/><rect x="528" y="478" width="112" height="34" rx="17" fill="#0f9b6f" stroke="none" stroke-width="1" opacity="0.12"/><text x="584" y="501" font-family="Inter, Arial, sans-serif" font-size="14" font-weight="800" fill="#0f9b6f" fill-opacity="1" text-anchor="middle">Оптимум</text><text x="528" y="558" font-family="Inter, Arial, sans-serif" font-size="34" font-weight="900" fill="#0f172a" fill-opacity="1" text-anchor="start">от 25 000 ₽ / мес</text><text x="528" y="594" font-family="Inter, Arial, sans-serif" font-size="18" font-weight="600" fill="#475569" fill-opacity="1" text-anchor="start">Для ИП и ООО</text><rect x="528" y="642" width="320" height="16" rx="8" fill="#e7ecf4" stroke="none" stroke-width="1" opacity="1"/><rect x="528" y="670" width="264" height="16" rx="8" fill="#eef2f7" stroke="none" stroke-width="1" opacity="1"/><rect x="528" y="698" width="208" height="16" rx="8" fill="#eef2f7" stroke="none" stroke-width="1" opacity="1"/><rect x="892" y="452" width="376" height="292" rx="26" fill="#ffffff" stroke="none" stroke-width="1" opacity="1" filter="url(#soft)"/><rect x="920" y="478" width="112" height="34" rx="17" fill="#0f9b6f" stroke="none" stroke-width="1" opacity="0.12"/><text x="976" y="501" font-family="Inter, Arial, sans-serif" font-size="14" font-weight="800" fill="#0f9b6f" fill-opacity="1" text-anchor="middle">Премиум</text><text x="920" y="558" font-family="Inter, Arial, sans-serif" font-size="34" font-weight="900" fill="#0f172a" fill-opacity="1" text-anchor="start">Индивидуально</text><text x="920" y="594" font-family="Inter, Arial, sans-serif" font-size="18" font-weight="600" fill="#475569" fill-opacity="1" text-anchor="start">Для компаний с объёмом</text><rect x="920" y="642" width="320" height="16" rx="8" fill="#e7ecf4" stroke="none" stroke-width="1" opacity="1"/><rect x="920" y="670" width="264" height="16" rx="8" fill="#eef2f7" stroke="none" stroke-width="1" opacity="1"/><rect x="920" y="698" width="208" height="16" rx="8" fill="#eef2f7" stroke="none" stroke-width="1" opacity="1"/><rect x="108" y="778" width="1220" height="54" rx="22" fill="#0f172a" stroke="none" stroke-width="1" opacity="1"/><text x="158" y="812" font-family="Inter, Arial, sans-serif" font-size="18" font-weight="800" fill="#ffffff" fill-opacity="1" text-anchor="start">Сильный demo-сайт для портфолио</text><text x="1232" y="812" font-family="Inter, Arial, sans-serif" font-size="16" font-weight="700" fill="#ffffff" fill-opacity="1" text-anchor="end">Форма · доверие · CTA</text></svg>