<svg xmlns="http://www.w3.org/2000/svg" width="430" height="932" viewBox="0 0 430 932">
    <defs>
      <linearGradient id="bg" x1="0" y1="0" x2="1" y2="1"><stop offset="0%" stop-color="#f8fdff"/><stop offset="100%" stop-color="#edf8fb"/></linearGradient>
      <linearGradient id="dark" x1="0" y1="0" x2="1" y2="1"><stop offset="0%" stop-color="#0f172a"/><stop offset="100%" stop-color="#1e293b"/></linearGradient>
      <linearGradient id="lightCard" x1="0" y1="0" x2="0" y2="1"><stop offset="0%" stop-color="#ffffff" stop-opacity="0.96"/><stop offset="100%" stop-color="#ffffff" stop-opacity="0.78"/></linearGradient>
      <filter id="shadow" x="-20%" y="-20%" width="140%" height="140%"><feDropShadow dx="0" dy="18" stdDeviation="22" flood-color="#0f172a" flood-opacity="0.12"/></filter>
      <filter id="soft" x="-20%" y="-20%" width="140%" height="140%"><feDropShadow dx="0" dy="10" stdDeviation="14" flood-color="#0f172a" flood-opacity="0.08"/></filter>
    </defs>
    <rect width="100%" height="100%" fill="url(#bg)"/>
    <rect x="18" y="18" width="394" height="896" rx="34" fill="url(#lightCard)" stroke="none" stroke-width="1" opacity="1" filter="url(#shadow)"/><rect x="44" y="42" width="342" height="56" rx="22" fill="#ffffff" stroke="none" stroke-width="1" opacity="1" filter="url(#soft)"/><text x="82" y="77" font-family="Inter, Arial, sans-serif" font-size="18" font-weight="800" fill="#0f172a" fill-opacity="1" text-anchor="start">Стоматология д</text><rect x="288" y="54" width="74" height="30" rx="15" fill="#0ea5e9" stroke="none" stroke-width="1" opacity="0.12"/><text x="325" y="74" font-family="Inter, Arial, sans-serif" font-size="13" font-weight="800" fill="#0ea5e9" fill-opacity="1" text-anchor="middle">Заявка</text><rect x="38" y="120" width="354" height="252" rx="28" fill="#ffffff" stroke="none" stroke-width="1" opacity="1" filter="url(#soft)"/><rect x="62" y="146" width="132" height="34" rx="18" fill="#0ea5e9" stroke="none" stroke-width="1" opacity="0.12"/><text x="128" y="169" font-family="Inter, Arial, sans-serif" font-size="13" font-weight="800" fill="#0ea5e9" fill-opacity="1" text-anchor="middle">Medical premium</text><text x="62" y="220" font-family="Inter, Arial, sans-serif" font-size="33" font-weight="900" fill="#0f172a" fill-opacity="1" text-anchor="start">Стоматология для всей семьи</text><text x="62" y="262" font-family="Inter, Arial, sans-serif" font-size="18" font-weight="600" fill="#475569" fill-opacity="1" text-anchor="start">Современное лечение · запись онлайн · забота о вашей улыбке</text><rect x="62" y="308" width="150" height="46" rx="18" fill="#0ea5e9" stroke="none" stroke-width="1" opacity="1"/><text x="137" y="337" font-family="Inter, Arial, sans-serif" font-size="15" font-weight="800" fill="#ffffff" fill-opacity="1" text-anchor="middle">Оставить заявку</text><circle cx="320" cy="242" r="48" fill="#dff6ff"/><path d="M296 296c8-12 16-18 24-18s16 6 24 18v22h-48z" fill="#dff6ff"/><path d="M302 244c6 8 12 12 18 12s12-4 18-12" stroke="#38bdf8" stroke-width="7" stroke-linecap="round" fill="none"/><rect x="38" y="396" width="354" height="100" rx="24" fill="#ffffff" stroke="none" stroke-width="1" opacity="1" filter="url(#soft)"/><rect x="62" y="418" width="90" height="28" rx="14" fill="#0ea5e9" stroke="none" stroke-width="1" opacity="0.12"/><text x="107" y="438" font-family="Inter, Arial, sans-serif" font-size="13" font-weight="800" fill="#0ea5e9" fill-opacity="1" text-anchor="middle">Услуги</text><rect x="62" y="454" width="220" height="12" rx="6" fill="#e7ecf4" stroke="none" stroke-width="1" opacity="1"/><rect x="62" y="476" width="180" height="12" rx="6" fill="#eef2f7" stroke="none" stroke-width="1" opacity="1"/><rect x="38" y="516" width="354" height="100" rx="24" fill="#ffffff" stroke="none" stroke-width="1" opacity="1" filter="url(#soft)"/><rect x="62" y="538" width="90" height="28" rx="14" fill="#0ea5e9" stroke="none" stroke-width="1" opacity="0.12"/><text x="107" y="558" font-family="Inter, Arial, sans-serif" font-size="13" font-weight="800" fill="#0ea5e9" fill-opacity="1" text-anchor="middle">Преимущества</text><rect x="62" y="574" width="220" height="12" rx="6" fill="#e7ecf4" stroke="none" stroke-width="1" opacity="1"/><rect x="62" y="596" width="180" height="12" rx="6" fill="#eef2f7" stroke="none" stroke-width="1" opacity="1"/><rect x="38" y="636" width="354" height="100" rx="24" fill="#ffffff" stroke="none" stroke-width="1" opacity="1" filter="url(#soft)"/><rect x="62" y="658" width="90" height="28" rx="14" fill="#0ea5e9" stroke="none" stroke-width="1" opacity="0.12"/><text x="107" y="678" font-family="Inter, Arial, sans-serif" font-size="13" font-weight="800" fill="#0ea5e9" fill-opacity="1" text-anchor="middle">Форматы</text><rect x="62" y="694" width="220" height="12" rx="6" fill="#e7ecf4" stroke="none" stroke-width="1" opacity="1"/><rect x="62" y="716" width="180" height="12" rx="6" fill="#eef2f7" stroke="none" stroke-width="1" opacity="1"/><rect x="38" y="756" width="354" height="100" rx="24" fill="#ffffff" stroke="none" stroke-width="1" opacity="1" filter="url(#soft)"/><rect x="62" y="778" width="90" height="28" rx="14" fill="#0ea5e9" stroke="none" stroke-width="1" opacity="0.12"/><text x="107" y="798" font-family="Inter, Arial, sans-serif" font-size="13" font-weight="800" fill="#0ea5e9" fill-opacity="1" text-anchor="middle">Отзывы</text><rect x="62" y="814" width="220" height="12" rx="6" fill="#e7ecf4" stroke="none" stroke-width="1" opacity="1"/><rect x="62" y="836" width="180" height="12" rx="6" fill="#eef2f7" stroke="none" stroke-width="1" opacity="1"/></svg>