<svg xmlns="http://www.w3.org/2000/svg" width="430" height="932" viewBox="0 0 430 932">
    <defs>
      <linearGradient id="bg" x1="0" y1="0" x2="1" y2="1"><stop offset="0%" stop-color="#eef3ff"/><stop offset="100%" stop-color="#edf4fb"/></linearGradient>
      <linearGradient id="dark" x1="0" y1="0" x2="1" y2="1"><stop offset="0%" stop-color="#0f172a"/><stop offset="100%" stop-color="#1e293b"/></linearGradient>
      <linearGradient id="lightCard" x1="0" y1="0" x2="0" y2="1"><stop offset="0%" stop-color="#ffffff" stop-opacity="0.96"/><stop offset="100%" stop-color="#ffffff" stop-opacity="0.78"/></linearGradient>
      <filter id="shadow" x="-20%" y="-20%" width="140%" height="140%"><feDropShadow dx="0" dy="18" stdDeviation="22" flood-color="#0f172a" flood-opacity="0.12"/></filter>
      <filter id="soft" x="-20%" y="-20%" width="140%" height="140%"><feDropShadow dx="0" dy="10" stdDeviation="14" flood-color="#0f172a" flood-opacity="0.08"/></filter>
    </defs>
    <rect width="100%" height="100%" fill="url(#bg)"/>
    <rect x="18" y="18" width="394" height="896" rx="34" fill="url(#lightCard)" stroke="none" stroke-width="1" opacity="1" filter="url(#shadow)"/><rect x="44" y="42" width="342" height="56" rx="22" fill="#ffffff" stroke="none" stroke-width="1" opacity="1" filter="url(#soft)"/><text x="82" y="77" font-family="Inter, Arial, sans-serif" font-size="18" font-weight="800" fill="#0f172a" fill-opacity="1" text-anchor="start">Сантехник 24/7</text><rect x="288" y="54" width="74" height="30" rx="15" fill="#c43d32" stroke="none" stroke-width="1" opacity="0.12"/><text x="325" y="74" font-family="Inter, Arial, sans-serif" font-size="13" font-weight="800" fill="#c43d32" fill-opacity="1" text-anchor="middle">Заявка</text><rect x="38" y="120" width="354" height="252" rx="28" fill="#ffffff" stroke="none" stroke-width="1" opacity="1" filter="url(#soft)"/><rect x="62" y="146" width="132" height="34" rx="18" fill="#c43d32" stroke="none" stroke-width="1" opacity="0.12"/><text x="128" y="169" font-family="Inter, Arial, sans-serif" font-size="13" font-weight="800" fill="#c43d32" fill-opacity="1" text-anchor="middle">Аварийный сервис</text><text x="62" y="220" font-family="Inter, Arial, sans-serif" font-size="33" font-weight="900" fill="#0f172a" fill-opacity="1" text-anchor="start">Сантехник 24/7 без выходных</text><text x="62" y="262" font-family="Inter, Arial, sans-serif" font-size="18" font-weight="600" fill="#475569" fill-opacity="1" text-anchor="start">Выезд за 30 минут · протечки · засоры · замена сантехники</text><rect x="62" y="308" width="150" height="46" rx="18" fill="#c43d32" stroke="none" stroke-width="1" opacity="1"/><text x="137" y="337" font-family="Inter, Arial, sans-serif" font-size="15" font-weight="800" fill="#ffffff" fill-opacity="1" text-anchor="middle">Оставить заявку</text><path d="M284 214v74c0 18 14 32 32 32s32-14 32-32v-74" stroke="#93c5fd" stroke-width="12" stroke-linecap="round" fill="none"/><circle cx="350" cy="240" r="26" fill="#fecaca"/><path d="M350 222v24l16 10" stroke="#b91c1c" stroke-width="6" stroke-linecap="round"/><rect x="38" y="396" width="354" height="100" rx="24" fill="#ffffff" stroke="none" stroke-width="1" opacity="1" filter="url(#soft)"/><rect x="62" y="418" width="90" height="28" rx="14" fill="#c43d32" stroke="none" stroke-width="1" opacity="0.12"/><text x="107" y="438" font-family="Inter, Arial, sans-serif" font-size="13" font-weight="800" fill="#c43d32" fill-opacity="1" text-anchor="middle">Услуги</text><rect x="62" y="454" width="220" height="12" rx="6" fill="#e7ecf4" stroke="none" stroke-width="1" opacity="1"/><rect x="62" y="476" width="180" height="12" rx="6" fill="#eef2f7" stroke="none" stroke-width="1" opacity="1"/><rect x="38" y="516" width="354" height="100" rx="24" fill="#ffffff" stroke="none" stroke-width="1" opacity="1" filter="url(#soft)"/><rect x="62" y="538" width="90" height="28" rx="14" fill="#c43d32" stroke="none" stroke-width="1" opacity="0.12"/><text x="107" y="558" font-family="Inter, Arial, sans-serif" font-size="13" font-weight="800" fill="#c43d32" fill-opacity="1" text-anchor="middle">Преимущества</text><rect x="62" y="574" width="220" height="12" rx="6" fill="#e7ecf4" stroke="none" stroke-width="1" opacity="1"/><rect x="62" y="596" width="180" height="12" rx="6" fill="#eef2f7" stroke="none" stroke-width="1" opacity="1"/><rect x="38" y="636" width="354" height="100" rx="24" fill="#ffffff" stroke="none" stroke-width="1" opacity="1" filter="url(#soft)"/><rect x="62" y="658" width="90" height="28" rx="14" fill="#c43d32" stroke="none" stroke-width="1" opacity="0.12"/><text x="107" y="678" font-family="Inter, Arial, sans-serif" font-size="13" font-weight="800" fill="#c43d32" fill-opacity="1" text-anchor="middle">Форматы</text><rect x="62" y="694" width="220" height="12" rx="6" fill="#e7ecf4" stroke="none" stroke-width="1" opacity="1"/><rect x="62" y="716" width="180" height="12" rx="6" fill="#eef2f7" stroke="none" stroke-width="1" opacity="1"/><rect x="38" y="756" width="354" height="100" rx="24" fill="#ffffff" stroke="none" stroke-width="1" opacity="1" filter="url(#soft)"/><rect x="62" y="778" width="90" height="28" rx="14" fill="#c43d32" stroke="none" stroke-width="1" opacity="0.12"/><text x="107" y="798" font-family="Inter, Arial, sans-serif" font-size="13" font-weight="800" fill="#c43d32" fill-opacity="1" text-anchor="middle">Отзывы</text><rect x="62" y="814" width="220" height="12" rx="6" fill="#e7ecf4" stroke="none" stroke-width="1" opacity="1"/><rect x="62" y="836" width="180" height="12" rx="6" fill="#eef2f7" stroke="none" stroke-width="1" opacity="1"/></svg>